<svg width="1728" height="1117" viewBox="0 0 1728 1117" fill="none" xmlns="http://www.w3.org/2000/svg">
<rect width="1728" height="1117" fill="#1E1E1E"/>
<rect width="1728" height="1117" fill="white"/>
<rect x="1105" y="666" width="358" height="138" fill="#C7E7F5"/>
<path d="M1153.75 746.368L1157.28 750.815C1154.6 755.665 1149.23 759 1143.05 759C1134.2 759 1127 752.204 1127 743.842C1127 737.703 1130.91 732.474 1136.5 730.074L1137.06 735.556C1134.25 737.375 1132.35 740.381 1132.35 743.842C1132.35 749.425 1137.14 753.947 1143.05 753.947C1148.02 753.947 1152.17 750.714 1153.37 746.368H1153.75ZM1168.59 746.646L1165.25 748.213L1157.76 738.789H1145.48L1144.95 733.737H1153.75V728.684H1144.39L1143.58 721.105C1146.29 720.802 1148.4 718.68 1148.4 716.053C1148.4 714.713 1147.83 713.427 1146.83 712.48C1145.83 711.532 1144.47 711 1143.05 711C1141.63 711 1140.27 711.532 1139.27 712.48C1138.26 713.427 1137.7 714.713 1137.7 716.053V716.305L1140.64 743.842H1155.09L1163.64 754.629L1171 751.168L1168.59 746.646Z" fill="black"/>
<path d="M1243.75 746.368L1247.28 750.815C1244.6 755.665 1239.23 759 1233.05 759C1224.2 759 1217 752.204 1217 743.842C1217 737.703 1220.91 732.474 1226.5 730.074L1227.06 735.556C1224.25 737.375 1222.35 740.381 1222.35 743.842C1222.35 749.425 1227.14 753.947 1233.05 753.947C1238.02 753.947 1242.17 750.714 1243.37 746.368H1243.75ZM1258.59 746.646L1255.25 748.213L1247.76 738.789H1235.48L1234.95 733.737H1243.75V728.684H1234.39L1233.58 721.105C1236.29 720.802 1238.4 718.68 1238.4 716.053C1238.4 714.713 1237.83 713.427 1236.83 712.48C1235.83 711.532 1234.47 711 1233.05 711C1231.63 711 1230.27 711.532 1229.27 712.48C1228.26 713.427 1227.7 714.713 1227.7 716.053V716.305L1230.64 743.842H1245.09L1253.64 754.629L1261 751.168L1258.59 746.646Z" fill="black"/>
<path d="M1333.75 745.368L1337.28 749.815C1334.6 754.665 1329.23 758 1323.05 758C1314.2 758 1307 751.204 1307 742.842C1307 736.703 1310.91 731.474 1316.5 729.074L1317.06 734.556C1314.25 736.375 1312.35 739.381 1312.35 742.842C1312.35 748.425 1317.14 752.947 1323.05 752.947C1328.02 752.947 1332.17 749.714 1333.37 745.368H1333.75ZM1348.59 745.646L1345.25 747.213L1337.76 737.789H1325.48L1324.95 732.737H1333.75V727.684H1324.39L1323.58 720.105C1326.29 719.802 1328.4 717.68 1328.4 715.053C1328.4 713.713 1327.83 712.427 1326.83 711.48C1325.83 710.532 1324.47 710 1323.05 710C1321.63 710 1320.27 710.532 1319.27 711.48C1318.26 712.427 1317.7 713.713 1317.7 715.053V715.305L1320.64 742.842H1335.09L1343.64 753.629L1351 750.168L1348.59 745.646Z" fill="black"/>
<path d="M1423.75 745.368L1427.28 749.815C1424.6 754.665 1419.23 758 1413.05 758C1404.2 758 1397 751.204 1397 742.842C1397 736.703 1400.91 731.474 1406.5 729.074L1407.06 734.556C1404.25 736.375 1402.35 739.381 1402.35 742.842C1402.35 748.425 1407.14 752.947 1413.05 752.947C1418.02 752.947 1422.17 749.714 1423.37 745.368H1423.75ZM1438.59 745.646L1435.25 747.213L1427.76 737.789H1415.48L1414.95 732.737H1423.75V727.684H1414.39L1413.58 720.105C1416.29 719.802 1418.4 717.68 1418.4 715.053C1418.4 713.713 1417.83 712.427 1416.83 711.48C1415.83 710.532 1414.47 710 1413.05 710C1411.63 710 1410.27 710.532 1409.27 711.48C1408.26 712.427 1407.7 713.713 1407.7 715.053V715.305L1410.64 742.842H1425.09L1433.64 753.629L1441 750.168L1438.59 745.646Z" fill="black"/>
<path d="M1388 539L1395.47 546.25L1376.53 564H1441.33V574H1376.53L1395.47 591.75L1388 599L1356 569L1388 539Z" fill="black"/>
<path d="M1424.5 639.75L1416.92 632.44L1436.15 614.542H1370.33V604.458H1436.15L1416.92 586.56L1424.5 579.25L1457 609.5L1424.5 639.75Z" fill="black"/>
<path d="M351 539L358.467 546.25L339.533 564H404.333V574H339.533L358.467 591.75L351 599L319 569L351 539Z" fill="black"/>
<path d="M387.5 639.75L379.917 632.44L399.146 614.542H333.333V604.458H399.146L379.917 586.56L387.5 579.25L420 609.5L387.5 639.75Z" fill="black"/>
<rect x="1034" y="666" width="8" height="138" rx="4" fill="black"/>
<rect x="963" y="666" width="8" height="138" rx="4" fill="black"/>
<rect x="892" y="666" width="8" height="138" rx="4" fill="black"/>
<rect x="821" y="666" width="8" height="138" rx="4" fill="black"/>
<rect x="750" y="666" width="8" height="138" rx="4" fill="black"/>
<rect x="679" y="666" width="8" height="138" rx="4" fill="black"/>
<rect x="608" y="666" width="8" height="138" rx="4" fill="black"/>
<rect x="537" y="666" width="8" height="138" rx="4" fill="black"/>
<rect x="466" y="666" width="8" height="138" rx="4" fill="black"/>
<rect x="429" y="338" width="8" height="138" rx="4" fill="black"/>
<rect x="500" y="338" width="8" height="138" rx="4" fill="black"/>
<rect x="571" y="338" width="8" height="138" rx="4" fill="black"/>
<rect x="642" y="338" width="8" height="138" rx="4" fill="black"/>
<rect x="713" y="338" width="8" height="138" rx="4" fill="black"/>
<rect x="784" y="338" width="8" height="138" rx="4" fill="black"/>
<rect x="855" y="338" width="8" height="138" rx="4" fill="black"/>
<rect x="926" y="338" width="8" height="138" rx="4" fill="black"/>
<rect x="997" y="338" width="8" height="138" rx="4" fill="black"/>
<rect x="1068" y="338" width="8" height="138" rx="4" fill="black"/>
<rect x="1139" y="338" width="8" height="138" rx="4" fill="black"/>
<rect x="1210" y="338" width="8" height="138" rx="4" fill="black"/>
<rect x="1097" y="666" width="8" height="138" rx="4" fill="#D6D6D6"/>
<rect x="1187" y="665" width="8" height="138" rx="4" fill="#D6D6D6"/>
<rect x="1276" y="665" width="8" height="138" rx="4" fill="#D6D6D6"/>
<rect x="1366" y="665" width="8" height="138" rx="4" fill="#D6D6D6"/>
<path d="M1455 671.499V803H1523V700.722C1519 671.499 1460.5 657.429 1455 671.499Z" fill="#3E3E3E" stroke="#3E3E3E"/>
<path d="M403 682.081V803.581H335.5V709.039C339.5 682.039 397.5 669.081 403 682.081Z" fill="#3E3E3E" stroke="#3E3E3E"/>
<path d="M366 470.453V338H299.5V441C303.47 470.434 360.541 484.625 366 470.453Z" fill="#3E3E3E" stroke="#3E3E3E"/>
<rect x="335" y="798" width="1188" height="56" fill="#3E3E3E"/>
<rect x="299" y="282" width="1243" height="56" fill="#3E3E3E"/>
<rect x="1281" y="334" width="261" height="168" rx="20" fill="#3E3E3E"/>
<rect x="1451" y="315" width="91" height="187" fill="#3E3E3E"/>
<rect x="1281" y="319" width="59" height="45" fill="#3E3E3E"/>
</svg>
