<svg width="1728" height="1117" viewBox="0 0 1728 1117" fill="none" xmlns="http://www.w3.org/2000/svg">
<rect width="1728" height="1117" fill="#1E1E1E"/>
<rect width="1728" height="1117" fill="white"/>
<path d="M1571.47 305.433L1579.78 305.433L1639.84 377.034L1631.53 377.034L1571.47 305.433Z" fill="black"/>
<path d="M1070.92 312.301L1078.92 311.93L1133.53 377.034L1125.5 377.034L1070.92 312.301Z" fill="black"/>
<path d="M1070.97 327.251L1078.27 326.043L1120.5 377L1113.07 377.078L1070.97 327.251Z" fill="black"/>
<path d="M1071 341.094L1077.64 339.104L1108.5 377L1101.5 377L1071 341.094Z" fill="black"/>
<path d="M1072.38 359.418L1078.2 356.453L1094.5 377L1088 377L1072.38 359.418Z" fill="black"/>
<path d="M1077.03 305.433L1085.35 305.433L1145.41 377.034L1137.1 377.034L1077.03 305.433Z" fill="black"/>
<path d="M1089.93 305.433L1098.24 305.433L1158.31 377.034L1149.99 377.034L1089.93 305.433Z" fill="black"/>
<path d="M1102.82 305.094L1111.14 305.094L1171.2 376.694L1162.89 376.694L1102.82 305.094Z" fill="black"/>
<path d="M1115.72 305.094L1124.03 305.094L1184.1 376.694L1175.78 376.694L1115.72 305.094Z" fill="black"/>
<path d="M1128.61 305.433L1136.93 305.433L1196.99 377.034L1188.68 377.034L1128.61 305.433Z" fill="black"/>
<path d="M1129.01 305.433L1137.32 305.433L1197.39 377.034L1189.07 377.034L1129.01 305.433Z" fill="black"/>
<path d="M1140.89 305.433L1149.2 305.433L1209.26 377.034L1200.95 377.034L1140.89 305.433Z" fill="black"/>
<path d="M1153.78 305.433L1162.1 305.433L1222.16 377.034L1213.85 377.034L1153.78 305.433Z" fill="black"/>
<path d="M1166.68 305.094L1174.99 305.094L1235.05 376.694L1226.74 376.694L1166.68 305.094Z" fill="black"/>
<path d="M1179.57 305.094L1187.89 305.094L1247.95 376.694L1239.64 376.694L1179.57 305.094Z" fill="black"/>
<path d="M1192.47 305.433L1200.78 305.433L1260.84 377.034L1252.53 377.034L1192.47 305.433Z" fill="black"/>
<path d="M1192.01 305.433L1200.32 305.433L1260.39 377.034L1252.07 377.034L1192.01 305.433Z" fill="black"/>
<path d="M1203.89 305.433L1212.2 305.433L1272.26 377.034L1263.95 377.034L1203.89 305.433Z" fill="black"/>
<path d="M1216.78 305.433L1225.1 305.433L1285.16 377.034L1276.85 377.034L1216.78 305.433Z" fill="black"/>
<path d="M1229.68 305.094L1237.99 305.094L1298.05 376.694L1289.74 376.694L1229.68 305.094Z" fill="black"/>
<path d="M1242.57 305.094L1250.89 305.094L1310.95 376.694L1302.64 376.694L1242.57 305.094Z" fill="black"/>
<path d="M1255.47 305.433L1263.78 305.433L1323.84 377.034L1315.53 377.034L1255.47 305.433Z" fill="black"/>
<path d="M1255.01 305.433L1263.32 305.433L1323.39 377.034L1315.07 377.034L1255.01 305.433Z" fill="black"/>
<path d="M1266.89 305.433L1275.2 305.433L1335.26 377.034L1326.95 377.034L1266.89 305.433Z" fill="black"/>
<path d="M1279.78 305.433L1288.1 305.433L1348.16 377.034L1339.85 377.034L1279.78 305.433Z" fill="black"/>
<path d="M1292.68 305.094L1300.99 305.094L1361.05 376.694L1352.74 376.694L1292.68 305.094Z" fill="black"/>
<path d="M1305.57 305.094L1313.89 305.094L1373.95 376.694L1365.64 376.694L1305.57 305.094Z" fill="black"/>
<path d="M1318.47 305.433L1326.78 305.433L1386.84 377.034L1378.53 377.034L1318.47 305.433Z" fill="black"/>
<path d="M1319.01 305.433L1327.32 305.433L1387.39 377.034L1379.07 377.034L1319.01 305.433Z" fill="black"/>
<path d="M1330.89 305.433L1339.2 305.433L1399.26 377.034L1390.95 377.034L1330.89 305.433Z" fill="black"/>
<path d="M1343.78 305.433L1352.1 305.433L1412.16 377.034L1403.85 377.034L1343.78 305.433Z" fill="black"/>
<path d="M1356.68 305.094L1364.99 305.094L1425.05 376.694L1416.74 376.694L1356.68 305.094Z" fill="black"/>
<path d="M1369.57 305.094L1377.89 305.094L1437.95 376.694L1429.64 376.694L1369.57 305.094Z" fill="black"/>
<path d="M1382.47 305.433L1390.78 305.433L1450.84 377.034L1442.53 377.034L1382.47 305.433Z" fill="black"/>
<path d="M1382.01 305.433L1390.32 305.433L1450.39 377.034L1442.07 377.034L1382.01 305.433Z" fill="black"/>
<path d="M1393.89 305.433L1402.2 305.433L1462.26 377.034L1453.95 377.034L1393.89 305.433Z" fill="black"/>
<path d="M1406.78 305.433L1415.1 305.433L1475.16 377.034L1466.85 377.034L1406.78 305.433Z" fill="black"/>
<path d="M1419.68 305.094L1427.99 305.094L1488.05 376.694L1479.74 376.694L1419.68 305.094Z" fill="black"/>
<path d="M1432.57 305.094L1440.89 305.094L1500.95 376.694L1492.64 376.694L1432.57 305.094Z" fill="black"/>
<path d="M1445.47 305.433L1453.78 305.433L1513.84 377.034L1505.53 377.034L1445.47 305.433Z" fill="black"/>
<path d="M1445.01 305.433L1453.32 305.433L1513.39 377.034L1505.07 377.034L1445.01 305.433Z" fill="black"/>
<path d="M1456.89 305.433L1465.2 305.433L1525.26 377.034L1516.95 377.034L1456.89 305.433Z" fill="black"/>
<path d="M1469.78 305.433L1478.1 305.433L1538.16 377.034L1529.85 377.034L1469.78 305.433Z" fill="black"/>
<path d="M1482.68 305.094L1490.99 305.094L1551.05 376.694L1542.74 376.694L1482.68 305.094Z" fill="black"/>
<path d="M1495.57 305.094L1503.89 305.094L1563.95 376.694L1555.64 376.694L1495.57 305.094Z" fill="black"/>
<path d="M1508.47 305.433L1516.78 305.433L1576.84 377.034L1568.53 377.034L1508.47 305.433Z" fill="black"/>
<path d="M1508.01 305.433L1516.32 305.433L1576.39 377.034L1568.07 377.034L1508.01 305.433Z" fill="black"/>
<path d="M1519.89 305.433L1528.2 305.433L1588.26 377.034L1579.95 377.034L1519.89 305.433Z" fill="black"/>
<path d="M1532.78 305.433L1541.1 305.433L1601.16 377.034L1592.85 377.034L1532.78 305.433Z" fill="black"/>
<path d="M1545.68 305.094L1553.99 305.094L1614.05 376.694L1605.74 376.694L1545.68 305.094Z" fill="black"/>
<path d="M1558.57 305.094L1566.89 305.094L1626.95 376.694L1618.64 376.694L1558.57 305.094Z" fill="black"/>
<path d="M1571.43 793.072L1571.43 784.758L1643.03 724.695L1643.03 733.008L1571.43 793.072Z" fill="black"/>
<path d="M1571.09 780.177L1571.09 771.863L1642.69 711.8L1642.69 720.114L1571.09 780.177Z" fill="black"/>
<path d="M1571.09 767.282L1571.09 758.968L1642.69 698.905L1642.69 707.219L1571.09 767.282Z" fill="black"/>
<path d="M1571.43 754.387L1571.43 746.073L1643.03 686.01L1643.03 694.324L1571.43 754.387Z" fill="black"/>
<path d="M1571.43 754.843L1571.43 746.53L1643.03 686.467L1643.03 694.78L1571.43 754.843Z" fill="black"/>
<path d="M1571.43 742.966L1571.43 734.653L1643.03 674.59L1643.03 682.903L1571.43 742.966Z" fill="black"/>
<path d="M1571.43 730.072L1571.43 721.758L1643.03 661.695L1643.03 670.009L1571.43 730.072Z" fill="black"/>
<path d="M1571.09 717.177L1571.09 708.863L1642.69 648.8L1642.69 657.114L1571.09 717.177Z" fill="black"/>
<path d="M1571.09 704.282L1571.09 695.968L1642.69 635.905L1642.69 644.219L1571.09 704.282Z" fill="black"/>
<path d="M1571.43 691.387L1571.43 683.073L1643.03 623.01L1643.03 631.324L1571.43 691.387Z" fill="black"/>
<path d="M1571.43 691.843L1571.43 683.53L1643.03 623.467L1643.03 631.78L1571.43 691.843Z" fill="black"/>
<path d="M1571.43 679.966L1571.43 671.653L1643.03 611.59L1643.03 619.903L1571.43 679.966Z" fill="black"/>
<path d="M1571.43 667.072L1571.43 658.758L1643.03 598.695L1643.03 607.009L1571.43 667.072Z" fill="black"/>
<path d="M1571.09 654.177L1571.09 645.863L1642.69 585.8L1642.69 594.114L1571.09 654.177Z" fill="black"/>
<path d="M1571.09 641.282L1571.09 632.968L1642.69 572.905L1642.69 581.219L1571.09 641.282Z" fill="black"/>
<path d="M1571.43 628.387L1571.43 620.073L1643.03 560.01L1643.03 568.324L1571.43 628.387Z" fill="black"/>
<path d="M1571.43 627.844L1571.43 619.53L1643.03 559.467L1643.03 567.781L1571.43 627.844Z" fill="black"/>
<path d="M1571.43 615.966L1571.43 607.652L1643.03 547.589L1643.03 555.903L1571.43 615.966Z" fill="black"/>
<path d="M1571.43 603.071L1571.43 594.758L1643.03 534.695L1643.03 543.008L1571.43 603.071Z" fill="black"/>
<path d="M1571.09 590.176L1571.09 581.863L1642.69 521.8L1642.69 530.113L1571.09 590.176Z" fill="black"/>
<path d="M1571.09 577.282L1571.09 568.968L1642.69 508.905L1642.69 517.219L1571.09 577.282Z" fill="black"/>
<path d="M1571.43 564.387L1571.43 556.073L1643.03 496.01L1643.03 504.324L1571.43 564.387Z" fill="black"/>
<path d="M1571.43 564.843L1571.43 556.529L1643.03 496.466L1643.03 504.78L1571.43 564.843Z" fill="black"/>
<path d="M1571.43 552.966L1571.43 544.652L1643.03 484.589L1643.03 492.903L1571.43 552.966Z" fill="black"/>
<path d="M1571.43 540.071L1571.43 531.758L1643.03 471.695L1643.03 480.008L1571.43 540.071Z" fill="black"/>
<path d="M1571.09 527.176L1571.09 518.863L1642.69 458.8L1642.69 467.113L1571.09 527.176Z" fill="black"/>
<path d="M1571.09 514.282L1571.09 505.968L1642.69 445.905L1642.69 454.219L1571.09 514.282Z" fill="black"/>
<path d="M1571.43 501.387L1571.43 493.073L1643.03 433.01L1643.03 441.324L1571.43 501.387Z" fill="black"/>
<path d="M1571.43 501.843L1571.43 493.529L1643.03 433.466L1643.03 441.78L1571.43 501.843Z" fill="black"/>
<path d="M1571.43 489.966L1571.43 481.652L1643.03 421.589L1643.03 429.903L1571.43 489.966Z" fill="black"/>
<path d="M1571.43 477.071L1571.43 468.758L1643.03 408.695L1643.03 417.008L1571.43 477.071Z" fill="black"/>
<path d="M1571.09 464.176L1571.09 455.863L1642.69 395.8L1642.69 404.113L1571.09 464.176Z" fill="black"/>
<path d="M1571.09 451.282L1571.09 442.968L1642.69 382.905L1642.69 391.219L1571.09 451.282Z" fill="black"/>
<path d="M1571.43 438.387L1571.43 430.073L1643.03 370.01L1643.03 378.324L1571.43 438.387Z" fill="black"/>
<path d="M1571.43 438.843L1571.43 430.529L1643.03 370.466L1643.03 378.78L1571.43 438.843Z" fill="black"/>
<path d="M1571.43 426.966L1571.43 418.652L1643.03 358.589L1643.03 366.903L1571.43 426.966Z" fill="black"/>
<path d="M1571.43 414.071L1571.43 405.758L1643.03 345.695L1643.03 354.008L1571.43 414.071Z" fill="black"/>
<path d="M1571.09 401.176L1571.09 392.863L1642.69 332.8L1642.69 341.113L1571.09 401.176Z" fill="black"/>
<path d="M1571.09 388.282L1571.09 379.968L1642.69 319.905L1642.69 328.219L1571.09 388.282Z" fill="black"/>
<rect x="841" y="282" width="8" height="95" rx="4" fill="black"/>
<rect x="803" y="282" width="8" height="95" rx="4" fill="black"/>
<rect x="765" y="282" width="8" height="95" rx="4" fill="black"/>
<rect x="727" y="282" width="8" height="95" rx="4" fill="black"/>
<rect x="689" y="282" width="8" height="95" rx="4" fill="black"/>
<rect x="651" y="282" width="8" height="95" rx="4" fill="black"/>
<rect x="613" y="282" width="8" height="95" rx="4" fill="black"/>
<rect x="575" y="282" width="8" height="95" rx="4" fill="black"/>
<rect x="537" y="282" width="8" height="95" rx="4" fill="black"/>
<rect x="499" y="282" width="8" height="95" rx="4" fill="black"/>
<rect x="461" y="282" width="8" height="95" rx="4" fill="black"/>
<rect x="423" y="282" width="8" height="95" rx="4" fill="black"/>
<rect x="385" y="282" width="8" height="95" rx="4" fill="black"/>
<rect x="347" y="282" width="8" height="95" rx="4" fill="black"/>
<rect x="309" y="282" width="8" height="95" rx="4" fill="black"/>
<rect x="271" y="282" width="8" height="95" rx="4" fill="black"/>
<rect x="233" y="282" width="8" height="95" rx="4" fill="black"/>
<rect x="195" y="282" width="8" height="95" rx="4" fill="black"/>
<rect x="1223" y="282" width="8" height="95" rx="4" fill="black"/>
<rect x="1261" y="282" width="8" height="95" rx="4" fill="black"/>
<rect x="1299" y="282" width="8" height="95" rx="4" fill="black"/>
<rect x="1337" y="282" width="8" height="95" rx="4" fill="black"/>
<rect x="1375" y="282" width="8" height="95" rx="4" fill="black"/>
<rect x="1413" y="282" width="8" height="95" rx="4" fill="black"/>
<rect x="1451" y="282" width="8" height="95" rx="4" fill="black"/>
<rect x="1489" y="282" width="8" height="95" rx="4" fill="black"/>
<rect x="1527" y="282" width="8" height="95" rx="4" fill="black"/>
<rect x="1185" y="282" width="8" height="95" rx="4" fill="black"/>
<rect x="1147" y="282" width="8" height="95" rx="4" fill="black"/>
<rect x="1109" y="282" width="8" height="95" rx="4" fill="black"/>
<rect x="1071" y="282" width="8" height="95" rx="4" fill="black"/>
<rect x="1033" y="282" width="8" height="95" rx="4" fill="black"/>
<rect x="995" y="282" width="8" height="95" rx="4" fill="black"/>
<rect x="882" y="278" width="79" height="99" rx="20" fill="#3E3E3E"/>
<rect x="1302" y="741" width="64" height="78" fill="#C7E7F5"/>
<rect x="1364" y="741" width="210" height="78" fill="#C7E7F5"/>
<rect x="1424" y="745" width="20" height="18" fill="#C7E7F5"/>
<rect x="1478" y="745" width="20" height="18" fill="#C7E7F5"/>
<rect x="1533" y="745" width="20" height="18" fill="#C7E7F5"/>
<path d="M1337.08 784.667L1339.45 787.82C1337.66 791.26 1334.06 793.625 1329.92 793.625C1323.99 793.625 1319.17 788.805 1319.17 782.875C1319.17 778.521 1321.78 774.812 1325.53 773.11L1325.9 776.998C1324.02 778.288 1322.75 780.42 1322.75 782.875C1322.75 786.835 1325.96 790.042 1329.92 790.042C1333.25 790.042 1336.03 787.748 1336.83 784.667H1337.08ZM1347.03 784.864L1344.79 785.975L1339.77 779.292H1331.55L1331.19 775.708H1337.08V772.125H1330.81L1330.27 766.75C1332.08 766.535 1333.5 765.03 1333.5 763.167C1333.5 762.216 1333.12 761.305 1332.45 760.633C1331.78 759.961 1330.87 759.583 1329.92 759.583C1328.97 759.583 1328.05 759.961 1327.38 760.633C1326.71 761.305 1326.33 762.216 1326.33 763.167V763.346L1328.3 782.875H1337.98L1343.71 790.525L1348.64 788.071L1347.03 784.864Z" fill="black"/>
<path d="M1388.92 785.083L1391.28 788.237C1389.49 791.677 1385.89 794.042 1381.75 794.042C1375.82 794.042 1371 789.222 1371 783.292C1371 778.938 1373.62 775.229 1377.36 773.527L1377.74 777.415C1375.86 778.705 1374.58 780.837 1374.58 783.292C1374.58 787.251 1377.79 790.458 1381.75 790.458C1385.08 790.458 1387.86 788.165 1388.67 785.083H1388.92ZM1398.86 785.28L1396.62 786.391L1391.6 779.708H1383.38L1383.02 776.125H1388.92V772.542H1382.65L1382.11 767.167C1383.92 766.952 1385.33 765.447 1385.33 763.583C1385.33 762.633 1384.96 761.722 1384.28 761.05C1383.61 760.378 1382.7 760 1381.75 760C1380.8 760 1379.89 760.378 1379.22 761.05C1378.54 761.722 1378.17 762.633 1378.17 763.583V763.762L1380.14 783.292H1389.81L1395.55 790.942L1400.47 788.488L1398.86 785.28Z" fill="black"/>
<path d="M1438.92 785.083L1441.28 788.237C1439.49 791.677 1435.89 794.042 1431.75 794.042C1425.82 794.042 1421 789.222 1421 783.292C1421 778.938 1423.62 775.229 1427.36 773.527L1427.74 777.415C1425.86 778.705 1424.58 780.837 1424.58 783.292C1424.58 787.251 1427.79 790.458 1431.75 790.458C1435.08 790.458 1437.86 788.165 1438.67 785.083H1438.92ZM1448.86 785.28L1446.62 786.391L1441.6 779.708H1433.38L1433.02 776.125H1438.92V772.542H1432.65L1432.11 767.167C1433.92 766.952 1435.33 765.447 1435.33 763.583C1435.33 762.633 1434.96 761.722 1434.28 761.05C1433.61 760.378 1432.7 760 1431.75 760C1430.8 760 1429.89 760.378 1429.22 761.05C1428.54 761.722 1428.17 762.633 1428.17 763.583V763.762L1430.14 783.292H1439.81L1445.55 790.942L1450.47 788.488L1448.86 785.28Z" fill="black"/>
<path d="M1490.92 785.083L1493.28 788.237C1491.49 791.677 1487.89 794.042 1483.75 794.042C1477.82 794.042 1473 789.222 1473 783.292C1473 778.938 1475.62 775.229 1479.36 773.527L1479.74 777.415C1477.86 778.705 1476.58 780.837 1476.58 783.292C1476.58 787.251 1479.79 790.458 1483.75 790.458C1487.08 790.458 1489.86 788.165 1490.67 785.083H1490.92ZM1500.86 785.28L1498.62 786.391L1493.6 779.708H1485.38L1485.02 776.125H1490.92V772.542H1484.65L1484.11 767.167C1485.92 766.952 1487.33 765.447 1487.33 763.583C1487.33 762.633 1486.96 761.722 1486.28 761.05C1485.61 760.378 1484.7 760 1483.75 760C1482.8 760 1481.89 760.378 1481.22 761.05C1480.54 761.722 1480.17 762.633 1480.17 763.583V763.762L1482.14 783.292H1491.81L1497.55 790.942L1502.47 788.488L1500.86 785.28Z" fill="black"/>
<path d="M1545.92 785.083L1548.28 788.237C1546.49 791.677 1542.89 794.042 1538.75 794.042C1532.82 794.042 1528 789.222 1528 783.292C1528 778.938 1530.62 775.229 1534.36 773.527L1534.74 777.415C1532.86 778.705 1531.58 780.837 1531.58 783.292C1531.58 787.251 1534.79 790.458 1538.75 790.458C1542.08 790.458 1544.86 788.165 1545.67 785.083H1545.92ZM1555.86 785.28L1553.62 786.391L1548.6 779.708H1540.38L1540.02 776.125H1545.92V772.542H1539.65L1539.11 767.167C1540.92 766.952 1542.33 765.447 1542.33 763.583C1542.33 762.633 1541.96 761.722 1541.28 761.05C1540.61 760.378 1539.7 760 1538.75 760C1537.8 760 1536.89 760.378 1536.22 761.05C1535.54 761.722 1535.17 762.633 1535.17 763.583V763.762L1537.14 783.292H1546.81L1552.55 790.942L1557.47 788.488L1555.86 785.28Z" fill="black"/>
<rect x="191" y="738" width="8" height="95" rx="4" fill="black"/>
<rect x="229" y="738" width="8" height="95" rx="4" fill="black"/>
<rect x="267" y="738" width="8" height="95" rx="4" fill="black"/>
<rect x="305" y="738" width="8" height="95" rx="4" fill="black"/>
<rect x="343" y="738" width="8" height="95" rx="4" fill="black"/>
<rect x="381" y="738" width="8" height="95" rx="4" fill="black"/>
<rect x="419" y="738" width="8" height="95" rx="4" fill="black"/>
<rect x="457" y="738" width="8" height="95" rx="4" fill="black"/>
<rect x="495" y="738" width="8" height="95" rx="4" fill="black"/>
<rect x="533" y="738" width="8" height="95" rx="4" fill="black"/>
<rect x="571" y="738" width="8" height="95" rx="4" fill="black"/>
<rect x="609" y="738" width="8" height="95" rx="4" fill="black"/>
<rect x="647" y="738" width="8" height="95" rx="4" fill="black"/>
<rect x="685" y="738" width="8" height="95" rx="4" fill="black"/>
<rect x="723" y="738" width="8" height="95" rx="4" fill="black"/>
<rect x="761" y="738" width="8" height="95" rx="4" fill="black"/>
<rect x="1071" y="741" width="8" height="95" rx="4" fill="black"/>
<rect x="1109" y="741" width="8" height="95" rx="4" fill="black"/>
<rect x="1147" y="741" width="8" height="95" rx="4" fill="black"/>
<rect x="1185" y="741" width="8" height="95" rx="4" fill="black"/>
<rect x="1223" y="741" width="8" height="95" rx="4" fill="black"/>
<rect x="1261" y="741" width="8" height="95" rx="4" fill="black"/>
<rect x="1299" y="741" width="8" height="95" rx="4" fill="#D6D6D6"/>
<rect x="1358" y="741" width="8" height="95" rx="4" fill="#D6D6D6"/>
<rect x="1406" y="741" width="8" height="95" rx="4" fill="#D6D6D6"/>
<rect x="1456" y="741" width="8" height="95" rx="4" fill="#D6D6D6"/>
<rect x="1510" y="741" width="8" height="95" rx="4" fill="#D6D6D6"/>
<rect x="704" y="480" width="8" height="160" rx="4" fill="black"/>
<rect x="666" y="480" width="8" height="160" rx="4" fill="black"/>
<rect x="628" y="480" width="8" height="160" rx="4" fill="black"/>
<rect x="590" y="480" width="8" height="160" rx="4" fill="black"/>
<rect x="552" y="480" width="8" height="160" rx="4" fill="black"/>
<rect x="514" y="480" width="8" height="160" rx="4" fill="black"/>
<rect x="476" y="480" width="8" height="160" rx="4" fill="black"/>
<rect x="438" y="480" width="8" height="160" rx="4" fill="black"/>
<rect x="400" y="480" width="8" height="160" rx="4" fill="black"/>
<rect x="362" y="480" width="8" height="160" rx="4" fill="black"/>
<rect x="742" y="480" width="8" height="160" rx="4" fill="black"/>
<rect x="780" y="480" width="8" height="160" rx="4" fill="black"/>
<rect x="818" y="480" width="8" height="160" rx="4" fill="black"/>
<rect x="856" y="480" width="8" height="160" rx="4" fill="black"/>
<rect x="894" y="480" width="8" height="160" rx="4" fill="black"/>
<rect x="932" y="480" width="8" height="160" rx="4" fill="black"/>
<rect x="970" y="480" width="8" height="160" rx="4" fill="black"/>
<rect x="1008" y="480" width="8" height="160" rx="4" fill="black"/>
<rect x="1046" y="480" width="8" height="160" rx="4" fill="black"/>
<rect x="1084" y="480" width="8" height="160" rx="4" fill="black"/>
<rect x="1122" y="480" width="8" height="160" rx="4" fill="black"/>
<rect x="1160" y="480" width="8" height="160" rx="4" fill="black"/>
<rect x="1198" y="480" width="8" height="160" rx="4" fill="black"/>
<rect x="1236" y="480" width="8" height="160" rx="4" fill="black"/>
<rect x="1274" y="480" width="8" height="160" rx="4" fill="black"/>
<rect x="1312" y="480" width="8" height="160" rx="4" fill="black"/>
<rect x="1350" y="480" width="8" height="160" rx="4" fill="black"/>
<rect x="322" y="563" width="8" height="1100" rx="4" transform="rotate(-90 322 563)" fill="black"/>
<path d="M1398 626.5V499C1406.5 462.5 1462 495 1465.5 521V597.5C1455 654.5 1398 643.5 1398 626.5Z" fill="#3E3E3E" stroke="#3E3E3E"/>
<path d="M1398 626.5V499C1406.5 462.5 1462 495 1465.5 521V597.5C1455 654.5 1398 643.5 1398 626.5Z" fill="#3E3E3E" stroke="#3E3E3E"/>
<path d="M331.5 623.817V496.317C323 459.817 267.5 492.317 264 518.317V594.817C274.5 651.817 331.5 640.817 331.5 623.817Z" fill="#3E3E3E" stroke="#3E3E3E"/>
<rect x="65" y="693.269" width="7.98611" height="95" rx="3.99306" transform="rotate(-90 65 693.269)" fill="black"/>
<rect x="65" y="427.731" width="7.98611" height="95" rx="3.99306" transform="rotate(-90 65 427.731)" fill="black"/>
<rect x="65" y="465.665" width="7.98611" height="95" rx="3.99306" transform="rotate(-90 65 465.665)" fill="black"/>
<rect x="65" y="503.599" width="7.98611" height="95" rx="3.99306" transform="rotate(-90 65 503.599)" fill="black"/>
<rect x="65" y="541.533" width="7.98611" height="95" rx="3.99306" transform="rotate(-90 65 541.533)" fill="black"/>
<rect x="65" y="579.467" width="7.98611" height="95" rx="3.99306" transform="rotate(-90 65 579.467)" fill="black"/>
<rect x="65" y="617.401" width="7.98611" height="95" rx="3.99306" transform="rotate(-90 65 617.401)" fill="black"/>
<rect x="65" y="655.335" width="7.98611" height="95" rx="3.99306" transform="rotate(-90 65 655.335)" fill="black"/>
<rect x="56" y="276" width="104" height="111" rx="24" fill="#3E3E3E"/>
<rect x="56" y="725.214" width="103" height="122.786" rx="24" fill="#3E3E3E"/>
<rect x="1569" y="731.203" width="103" height="117.797" rx="24" fill="#3E3E3E"/>
<rect x="1565" y="276" width="107" height="116" rx="24" fill="#3E3E3E"/>
<rect x="1569" y="700.257" width="7.98621" height="95" rx="3.9931" transform="rotate(-90 1569 700.257)" fill="black"/>
<rect x="1569" y="662.322" width="7.98621" height="95" rx="3.9931" transform="rotate(-90 1569 662.322)" fill="black"/>
<rect x="1569" y="624.388" width="7.98621" height="95" rx="3.9931" transform="rotate(-90 1569 624.388)" fill="black"/>
<rect x="1569" y="586.453" width="7.98621" height="95" rx="3.9931" transform="rotate(-90 1569 586.453)" fill="black"/>
<rect x="1569" y="548.519" width="7.98621" height="95" rx="3.9931" transform="rotate(-90 1569 548.519)" fill="black"/>
<rect x="1569" y="510.584" width="7.98621" height="95" rx="3.9931" transform="rotate(-90 1569 510.584)" fill="black"/>
<rect x="1569" y="472.65" width="7.98621" height="95" rx="3.9931" transform="rotate(-90 1569 472.65)" fill="black"/>
<rect x="1569" y="434.716" width="7.98621" height="95" rx="3.9931" transform="rotate(-90 1569 434.716)" fill="black"/>
<rect x="56" y="795" width="480" height="30" transform="rotate(-90 56 795)" fill="#3E3E3E"/>
<path d="M868 819.5H804.5V754C822.5 719.6 868 759.5 868 782V819.5Z" fill="#3E3E3E"/>
<path d="M974 819.934H1037.5V754.434C1019.5 720.034 974 759.934 974 782.434V819.934Z" fill="#3E3E3E"/>
<rect x="88" y="818" width="780" height="30" fill="#3E3E3E"/>
<rect x="128" y="276" width="1500" height="30" fill="#3E3E3E"/>
<rect x="974" y="819" width="670" height="30" fill="#3E3E3E"/>
<rect x="1642" y="809" width="480" height="30" transform="rotate(-90 1642 809)" fill="#3E3E3E"/>
<path d="M971 781.333L963.75 788.8L946 769.867V834.667H936V769.867L918.25 788.8L911 781.333L941 749.333L971 781.333Z" fill="black"/>
<path d="M870.25 817.833L877.56 810.25L895.458 829.479V763.667H905.542V829.479L923.44 810.25L930.75 817.833L900.5 850.333L870.25 817.833Z" fill="black"/>
</svg>
