<svg width="1728" height="1117" viewBox="0 0 1728 1117" fill="none" xmlns="http://www.w3.org/2000/svg">
<rect width="1728" height="1117" fill="#3E3E3E"/>
<rect width="1728" height="1117" fill="white"/>
<path d="M175 726.021V822.521V903.021H115C115.415 896.855 115 881.899 115 870.521L115 781.521C115 728.504 158.568 719.021 175 726.021Z" fill="#3E3E3E"/>
<path d="M1064 456.201L1071.98 455.209L1126.43 629.187L1118.42 629.187L1064 456.201Z" fill="black"/>
<path d="M1064.05 496.152L1071.33 492.923L1113.44 629.098L1106.02 629.306L1064.05 496.152Z" fill="black"/>
<path d="M1064.08 533.144L1070.7 527.827L1101.47 629.098L1094.49 629.098L1064.08 533.144Z" fill="black"/>
<path d="M1065.45 582.112L1071.26 574.189L1087.51 629.098L1081.03 629.098L1065.45 582.112Z" fill="black"/>
<path d="M1070.1 437.847L1078.39 437.847L1138.27 629.187L1129.98 629.187L1070.1 437.847Z" fill="black"/>
<path d="M1082.95 437.847L1091.24 437.847L1151.13 629.187L1142.84 629.187L1082.95 437.847Z" fill="black"/>
<path d="M1095.81 436.94L1104.1 436.94L1163.99 628.281L1155.7 628.281L1095.81 436.94Z" fill="black"/>
<path d="M1108.67 436.94L1116.96 436.94L1176.85 628.281L1168.56 628.281L1108.67 436.94Z" fill="black"/>
<path d="M1121.53 437.847L1129.82 437.847L1189.7 629.187L1181.41 629.187L1121.53 437.847Z" fill="black"/>
<path d="M1121.92 437.847L1130.21 437.847L1190.1 629.187L1181.81 629.187L1121.92 437.847Z" fill="black"/>
<path d="M1133.76 437.847L1142.05 437.847L1201.94 629.187L1193.65 629.187L1133.76 437.847Z" fill="black"/>
<path d="M1146.62 437.847L1154.91 437.847L1214.8 629.187L1206.51 629.187L1146.62 437.847Z" fill="black"/>
<path d="M1159.48 436.94L1167.77 436.94L1227.66 628.281L1219.37 628.281L1159.48 436.94Z" fill="black"/>
<path d="M1172.34 436.94L1180.63 436.94L1240.51 628.281L1232.22 628.281L1172.34 436.94Z" fill="black"/>
<path d="M1185.19 437.847L1193.48 437.847L1253.37 629.187L1245.08 629.187L1185.19 437.847Z" fill="black"/>
<path d="M1184.74 437.847L1193.03 437.847L1252.92 629.187L1244.63 629.187L1184.74 437.847Z" fill="black"/>
<path d="M1196.58 437.847L1204.87 437.847L1264.76 629.187L1256.47 629.187L1196.58 437.847Z" fill="black"/>
<path d="M1209.44 437.847L1217.73 437.847L1277.62 629.187L1269.33 629.187L1209.44 437.847Z" fill="black"/>
<path d="M1222.29 436.94L1230.58 436.94L1290.47 628.281L1282.18 628.281L1222.29 436.94Z" fill="black"/>
<path d="M1235.15 436.94L1243.44 436.94L1303.33 628.281L1295.04 628.281L1235.15 436.94Z" fill="black"/>
<path d="M1248.01 437.847L1256.3 437.847L1316.19 629.187L1307.9 629.187L1248.01 437.847Z" fill="black"/>
<path d="M1247.55 437.847L1255.84 437.847L1315.73 629.187L1307.44 629.187L1247.55 437.847Z" fill="black"/>
<path d="M1259.4 437.847L1267.69 437.847L1327.57 629.187L1319.29 629.187L1259.4 437.847Z" fill="black"/>
<path d="M1272.25 437.847L1280.54 437.847L1340.43 629.187L1332.14 629.187L1272.25 437.847Z" fill="black"/>
<path d="M1285.11 436.94L1293.4 436.94L1353.29 628.281L1345 628.281L1285.11 436.94Z" fill="black"/>
<path d="M1297.97 436.94L1306.26 436.94L1366.15 628.281L1357.86 628.281L1297.97 436.94Z" fill="black"/>
<path d="M1310.83 437.847L1319.12 437.847L1379 629.187L1370.71 629.187L1310.83 437.847Z" fill="black"/>
<path d="M1311.37 437.847L1319.66 437.847L1379.55 629.187L1371.26 629.187L1311.37 437.847Z" fill="black"/>
<path d="M1323.21 437.847L1331.5 437.847L1391.39 629.187L1383.1 629.187L1323.21 437.847Z" fill="black"/>
<path d="M1336.07 437.847L1344.36 437.847L1404.25 629.187L1395.96 629.187L1336.07 437.847Z" fill="black"/>
<path d="M1348.93 436.94L1357.22 436.94L1417.1 628.281L1408.81 628.281L1348.93 436.94Z" fill="black"/>
<path d="M1361.78 436.94L1369.92 436.94L1421.07 599.882L1413.26 601.418L1361.78 436.94Z" fill="black"/>
<path d="M1374.64 437.847L1382.06 437.847L1421.66 561.622L1414.52 565.277L1374.64 437.847Z" fill="black"/>
<path d="M1386.03 437.847L1393.69 437.847L1420.79 522.456L1414.31 528.229L1386.03 437.847Z" fill="black"/>
<path d="M1398.88 437.847L1406.83 437.847L1421.09 482.335L1415.28 490.278L1398.88 437.847Z" fill="black"/>
<rect x="1114" y="754" width="8" height="95" rx="4" fill="black"/>
<rect x="1064" y="754" width="8" height="95" rx="4" fill="black"/>
<rect x="1014" y="754" width="8" height="95" rx="4" fill="black"/>
<rect x="918" y="754" width="8" height="95" rx="4" fill="black"/>
<rect x="868" y="754" width="8" height="95" rx="4" fill="black"/>
<rect x="818" y="754" width="8" height="95" rx="4" fill="black"/>
<rect x="768" y="754" width="8" height="95" rx="4" fill="black"/>
<rect x="718" y="754" width="8" height="95" rx="4" fill="black"/>
<rect x="668" y="754" width="8" height="95" rx="4" fill="black"/>
<rect x="618" y="754" width="8" height="95" rx="4" fill="black"/>
<rect x="568" y="754" width="8" height="95" rx="4" fill="black"/>
<rect x="518" y="754" width="8" height="95" rx="4" fill="black"/>
<rect x="468" y="754" width="8" height="95" rx="4" fill="black"/>
<rect x="418" y="754" width="8" height="95" rx="4" fill="black"/>
<rect x="368" y="754" width="8" height="95" rx="4" fill="black"/>
<rect x="318" y="754" width="8" height="95" rx="4" fill="black"/>
<rect x="268" y="754" width="8" height="95" rx="4" fill="black"/>
<rect x="218" y="757" width="8" height="95" rx="4" fill="black"/>
<rect x="1164" y="754" width="8" height="95" rx="4" fill="black"/>
<rect x="1214" y="754" width="8" height="95" rx="4" fill="black"/>
<rect x="1264" y="754" width="8" height="95" rx="4" fill="black"/>
<rect x="1314" y="754" width="8" height="95" rx="4" fill="black"/>
<rect x="1364" y="754" width="8" height="95" rx="4" fill="black"/>
<rect x="1414" y="754" width="8" height="95" rx="4" fill="black"/>
<rect x="1464" y="754" width="8" height="95" rx="4" fill="black"/>
<rect x="1514" y="754" width="8" height="95" rx="4" fill="black"/>
<rect x="253" y="436" width="8" height="200" rx="4" fill="black"/>
<rect x="1114" y="436" width="8" height="200" rx="4" fill="black"/>
<rect x="1064" y="436" width="8" height="200" rx="4" fill="black"/>
<rect x="1070" y="541" width="8" height="347" rx="4" transform="rotate(-90 1070 541)" fill="black"/>
<rect x="853" y="436" width="8" height="200" rx="4" fill="black"/>
<rect x="903" y="436" width="8" height="200" rx="4" fill="black"/>
<rect x="803" y="436" width="8" height="200" rx="4" fill="black"/>
<rect x="753" y="436" width="8" height="200" rx="4" fill="black"/>
<rect x="703" y="437" width="8" height="200" rx="4" fill="black"/>
<rect x="653" y="437" width="8" height="200" rx="4" fill="black"/>
<rect x="603" y="436" width="8" height="200" rx="4" fill="black"/>
<rect x="553" y="437" width="8" height="200" rx="4" fill="black"/>
<rect x="503" y="436" width="8" height="200" rx="4" fill="black"/>
<rect x="453" y="436" width="8" height="200" rx="4" fill="black"/>
<rect x="403" y="436" width="8" height="200" rx="4" fill="black"/>
<rect x="353" y="436" width="8" height="200" rx="4" fill="black"/>
<rect x="303" y="436" width="8" height="200" rx="4" fill="black"/>
<rect x="244" y="541" width="8" height="665" rx="4" transform="rotate(-90 244 541)" fill="black"/>
<rect x="1164" y="436" width="8" height="200" rx="4" fill="black"/>
<rect x="1214" y="436" width="8" height="200" rx="4" fill="black"/>
<rect x="1264" y="436" width="8" height="200" rx="4" fill="black"/>
<rect x="1314" y="436" width="8" height="200" rx="4" fill="black"/>
<rect x="1364" y="436" width="8" height="200" rx="4" fill="black"/>
<rect x="1414" y="436" width="8" height="200" rx="4" fill="black"/>
<path d="M221 606C279.4 588.8 269.5 443 221 437H155V606H221Z" fill="#3E3E3E"/>
<rect x="1022" y="226" width="96" height="90" fill="#C7E7F5"/>
<rect x="786" y="224" width="151" height="92" fill="#C7E7F5"/>
<path d="M1048.92 273.083L1051.28 276.237C1049.49 279.677 1045.89 282.042 1041.75 282.042C1035.82 282.042 1031 277.222 1031 271.292C1031 266.938 1033.62 263.229 1037.36 261.527L1037.74 265.415C1035.86 266.705 1034.58 268.837 1034.58 271.292C1034.58 275.251 1037.79 278.458 1041.75 278.458C1045.08 278.458 1047.86 276.165 1048.67 273.083H1048.92ZM1058.86 273.28L1056.62 274.391L1051.6 267.708H1043.38L1043.02 264.125H1048.92V260.542H1042.65L1042.11 255.167C1043.92 254.952 1045.33 253.447 1045.33 251.583C1045.33 250.633 1044.96 249.722 1044.28 249.05C1043.61 248.378 1042.7 248 1041.75 248C1040.8 248 1039.89 248.378 1039.22 249.05C1038.54 249.722 1038.17 250.633 1038.17 251.583V251.763L1040.14 271.292H1049.81L1055.55 278.942L1060.47 276.488L1058.86 273.28Z" fill="black"/>
<path d="M829.237 279.053L831.644 282.202C829.821 285.638 826.155 288 821.942 288C815.906 288 811 283.186 811 277.263C811 272.915 813.663 269.211 817.474 267.511L817.857 271.394C815.942 272.682 814.647 274.812 814.647 277.263C814.647 281.218 817.912 284.421 821.942 284.421C825.334 284.421 828.161 282.131 828.982 279.053H829.237ZM839.359 279.249L837.079 280.359L831.973 273.684H823.602L823.237 270.105H829.237V266.526H822.854L822.307 261.158C824.149 260.943 825.59 259.44 825.59 257.579C825.59 256.63 825.205 255.719 824.521 255.048C823.837 254.377 822.91 254 821.942 254C820.975 254 820.047 254.377 819.363 255.048C818.679 255.719 818.295 256.63 818.295 257.579V257.758L820.301 277.263H830.149L835.985 284.904L841 282.453L839.359 279.249Z" fill="black"/>
<path d="M907.237 279.053L909.644 282.202C907.821 285.638 904.155 288 899.942 288C893.906 288 889 283.186 889 277.263C889 272.915 891.663 269.211 895.474 267.511L895.857 271.394C893.942 272.682 892.647 274.812 892.647 277.263C892.647 281.218 895.912 284.421 899.942 284.421C903.334 284.421 906.161 282.131 906.982 279.053H907.237ZM917.359 279.249L915.079 280.359L909.973 273.684H901.602L901.237 270.105H907.237V266.526H900.854L900.307 261.158C902.149 260.943 903.59 259.44 903.59 257.579C903.59 256.63 903.205 255.719 902.521 255.048C901.837 254.377 900.91 254 899.942 254C898.975 254 898.047 254.377 897.363 255.048C896.679 255.719 896.295 256.63 896.295 257.579V257.758L898.301 277.263H908.149L913.985 284.904L919 282.453L917.359 279.249Z" fill="black"/>
<path d="M1100.92 273.083L1103.28 276.237C1101.49 279.677 1097.89 282.042 1093.75 282.042C1087.82 282.042 1083 277.222 1083 271.292C1083 266.938 1085.62 263.229 1089.36 261.527L1089.74 265.415C1087.86 266.705 1086.58 268.837 1086.58 271.292C1086.58 275.251 1089.79 278.458 1093.75 278.458C1097.08 278.458 1099.86 276.165 1100.67 273.083H1100.92ZM1110.86 273.28L1108.62 274.391L1103.6 267.708H1095.38L1095.02 264.125H1100.92V260.542H1094.65L1094.11 255.167C1095.92 254.952 1097.33 253.447 1097.33 251.583C1097.33 250.633 1096.96 249.722 1096.28 249.05C1095.61 248.378 1094.7 248 1093.75 248C1092.8 248 1091.89 248.378 1091.22 249.05C1090.54 249.722 1090.17 250.633 1090.17 251.583V251.763L1092.14 271.292H1101.81L1107.55 278.942L1112.47 276.488L1110.86 273.28Z" fill="black"/>
<rect x="1162" y="221" width="8" height="95" rx="4" fill="black"/>
<rect x="1017" y="221" width="8" height="95" rx="4" fill="black"/>
<rect x="1114" y="221" width="8" height="95" rx="4" fill="black"/>
<rect x="1064" y="221" width="8" height="95" rx="4" fill="black"/>
<rect x="860" y="221" width="8" height="95" rx="4" fill="black"/>
<rect x="937" y="221" width="8" height="95" rx="4" fill="black"/>
<rect x="1214" y="223" width="8" height="95" rx="4" fill="black"/>
<rect x="1264" y="223" width="8" height="95" rx="4" fill="black"/>
<rect x="1314" y="223" width="8" height="95" rx="4" fill="black"/>
<rect x="1364" y="223" width="8" height="95" rx="4" fill="black"/>
<rect x="1414" y="223" width="8" height="95" rx="4" fill="black"/>
<rect x="1464" y="223" width="8" height="95" rx="4" fill="black"/>
<rect x="1514" y="221" width="8" height="95" rx="4" fill="black"/>
<path d="M1000.75 790.613L996.306 795.189L985.427 783.585V823.301H979.298V783.585L968.419 795.189L963.976 790.613L982.363 771L1000.75 790.613Z" fill="black"/>
<path d="M939 812.984L943.481 808.336L954.45 820.122V779.785H960.63V820.122L971.6 808.336L976.081 812.984L957.54 832.903L939 812.984Z" fill="black"/>
<path d="M179.613 649L184.189 653.444L172.585 664.323H212.301V670.452H172.585L184.189 681.331L179.613 685.774L160 667.387L179.613 649Z" fill="black"/>
<path d="M201.984 710.75L197.336 706.269L209.122 695.3H168.785V689.12H209.122L197.336 678.15L201.984 673.669L221.903 692.21L201.984 710.75Z" fill="black"/>
<path d="M179.613 348L184.189 352.444L172.585 363.323H212.301V369.452H172.585L184.189 380.331L179.613 384.774L160 366.387L179.613 348Z" fill="black"/>
<path d="M201.984 409.75L197.336 405.269L209.122 394.3H168.785V388.12H209.122L197.336 377.15L201.984 372.669L221.903 391.21L201.984 409.75Z" fill="black"/>
<rect x="1017" y="166" width="523" height="60" fill="#3E3E3E"/>
<path d="M112 183.5L945 166V226L112 219V183.5Z" fill="#3E3E3E"/>
<rect x="1514" y="166" width="60" height="738" rx="20" fill="#3E3E3E"/>
<rect x="1014" y="844" width="535" height="60" fill="#3E3E3E"/>
<rect x="174" y="843" width="752" height="60" fill="#3E3E3E"/>
<path d="M264 315.5C191.2 304.7 139.333 255.833 112 219L786 191.5V315.5H264Z" fill="#3E3E3E"/>
<rect x="112" y="166" width="822" height="52" rx="20" fill="#3E3E3E"/>
</svg>
