<?xml version="1.0" encoding="UTF-8" standalone="no"?>
<svg
   width="1616"
   height="574.33301"
   viewBox="0 0 1616 574.33301"
   fill="none"
   version="1.1"
   id="svg448"
   sodipodi:docname="Knowlton Parking lot final.svg"
   inkscape:version="1.2.2 (b0a8486541, 2022-12-01)"
   xmlns:inkscape="http://www.inkscape.org/namespaces/inkscape"
   xmlns:sodipodi="http://sodipodi.sourceforge.net/DTD/sodipodi-0.dtd"
   xmlns="http://www.w3.org/2000/svg"
   xmlns:svg="http://www.w3.org/2000/svg">
  <defs
     id="defs452" />
  <sodipodi:namedview
     id="namedview450"
     pagecolor="#ffffff"
     bordercolor="#cccccc"
     borderopacity="1"
     inkscape:showpageshadow="0"
     inkscape:pageopacity="0"
     inkscape:pagecheckerboard="0"
     inkscape:deskcolor="#d1d1d1"
     showgrid="false"
     inkscape:zoom="0.70008953"
     inkscape:cx="809.18223"
     inkscape:cy="282.82097"
     inkscape:window-width="1920"
     inkscape:window-height="1011"
     inkscape:window-x="0"
     inkscape:window-y="0"
     inkscape:window-maximized="1"
     inkscape:current-layer="svg448" />
  <path
     d="m 1515.47,29.433 h 8.31 l 60.06,71.601 h -8.31 z"
     fill="#000000"
     id="path6" />
  <path
     d="m 1014.92,36.301 8,-0.371 54.61,65.104 h -8.03 z"
     fill="#000000"
     id="path8" />
  <path
     d="m 1014.97,51.251 7.3,-1.208 42.23,50.957 -7.43,0.078 z"
     fill="#000000"
     id="path10" />
  <path
     d="m 1015,65.094 6.64,-1.99 30.86,37.896 h -7 z"
     fill="#000000"
     id="path12" />
  <path
     d="m 1016.38,83.418 5.82,-2.965 16.3,20.547 h -6.5 z"
     fill="#000000"
     id="path14" />
  <path
     d="m 1021.03,29.433 h 8.32 l 60.06,71.601 h -8.31 z"
     fill="#000000"
     id="path16" />
  <path
     d="m 1033.93,29.433 h 8.31 l 60.07,71.601 h -8.32 z"
     fill="#000000"
     id="path18" />
  <path
     d="m 1046.82,29.094 h 8.32 l 60.06,71.6 h -8.31 z"
     fill="#000000"
     id="path20" />
  <path
     d="m 1059.72,29.094 h 8.31 l 60.07,71.6 h -8.32 z"
     fill="#000000"
     id="path22" />
  <path
     d="m 1072.61,29.433 h 8.32 l 60.06,71.601 h -8.31 z"
     fill="#000000"
     id="path24" />
  <path
     d="m 1073.01,29.433 h 8.31 l 60.07,71.601 h -8.32 z"
     fill="#000000"
     id="path26" />
  <path
     d="m 1084.89,29.433 h 8.31 l 60.06,71.601 h -8.31 z"
     fill="#000000"
     id="path28" />
  <path
     d="m 1097.78,29.433 h 8.32 l 60.06,71.601 h -8.31 z"
     fill="#000000"
     id="path30" />
  <path
     d="m 1110.68,29.094 h 8.31 l 60.06,71.6 h -8.31 z"
     fill="#000000"
     id="path32" />
  <path
     d="m 1123.57,29.094 h 8.32 l 60.06,71.6 h -8.31 z"
     fill="#000000"
     id="path34" />
  <path
     d="m 1136.47,29.433 h 8.31 l 60.06,71.601 h -8.31 z"
     fill="#000000"
     id="path36" />
  <path
     d="m 1136.01,29.433 h 8.31 l 60.07,71.601 h -8.32 z"
     fill="#000000"
     id="path38" />
  <path
     d="m 1147.89,29.433 h 8.31 l 60.06,71.601 h -8.31 z"
     fill="#000000"
     id="path40" />
  <path
     d="m 1160.78,29.433 h 8.32 l 60.06,71.601 h -8.31 z"
     fill="#000000"
     id="path42" />
  <path
     d="m 1173.68,29.094 h 8.31 l 60.06,71.6 h -8.31 z"
     fill="#000000"
     id="path44" />
  <path
     d="m 1186.57,29.094 h 8.32 l 60.06,71.6 h -8.31 z"
     fill="#000000"
     id="path46" />
  <path
     d="m 1199.47,29.433 h 8.31 l 60.06,71.601 h -8.31 z"
     fill="#000000"
     id="path48" />
  <path
     d="m 1199.01,29.433 h 8.31 l 60.07,71.601 h -8.32 z"
     fill="#000000"
     id="path50" />
  <path
     d="m 1210.89,29.433 h 8.31 l 60.06,71.601 h -8.31 z"
     fill="#000000"
     id="path52" />
  <path
     d="m 1223.78,29.433 h 8.32 l 60.06,71.601 h -8.31 z"
     fill="#000000"
     id="path54" />
  <path
     d="m 1236.68,29.094 h 8.31 l 60.06,71.6 h -8.31 z"
     fill="#000000"
     id="path56" />
  <path
     d="m 1249.57,29.094 h 8.32 l 60.06,71.6 h -8.31 z"
     fill="#000000"
     id="path58" />
  <path
     d="m 1262.47,29.433 h 8.31 l 60.06,71.601 h -8.31 z"
     fill="#000000"
     id="path60" />
  <path
     d="m 1263.01,29.433 h 8.31 l 60.07,71.601 h -8.32 z"
     fill="#000000"
     id="path62" />
  <path
     d="m 1274.89,29.433 h 8.31 l 60.06,71.601 h -8.31 z"
     fill="#000000"
     id="path64" />
  <path
     d="m 1287.78,29.433 h 8.32 l 60.06,71.601 h -8.31 z"
     fill="#000000"
     id="path66" />
  <path
     d="m 1300.68,29.094 h 8.31 l 60.06,71.6 h -8.31 z"
     fill="#000000"
     id="path68" />
  <path
     d="m 1313.57,29.094 h 8.32 l 60.06,71.6 h -8.31 z"
     fill="#000000"
     id="path70" />
  <path
     d="m 1326.47,29.433 h 8.31 l 60.06,71.601 h -8.31 z"
     fill="#000000"
     id="path72" />
  <path
     d="m 1326.01,29.433 h 8.31 l 60.07,71.601 h -8.32 z"
     fill="#000000"
     id="path74" />
  <path
     d="m 1337.89,29.433 h 8.31 l 60.06,71.601 h -8.31 z"
     fill="#000000"
     id="path76" />
  <path
     d="m 1350.78,29.433 h 8.32 l 60.06,71.601 h -8.31 z"
     fill="#000000"
     id="path78" />
  <path
     d="m 1363.68,29.094 h 8.31 l 60.06,71.6 h -8.31 z"
     fill="#000000"
     id="path80" />
  <path
     d="m 1376.57,29.094 h 8.32 l 60.06,71.6 h -8.31 z"
     fill="#000000"
     id="path82" />
  <path
     d="m 1389.47,29.433 h 8.31 l 60.06,71.601 h -8.31 z"
     fill="#000000"
     id="path84" />
  <path
     d="m 1389.01,29.433 h 8.31 l 60.07,71.601 h -8.32 z"
     fill="#000000"
     id="path86" />
  <path
     d="m 1400.89,29.433 h 8.31 l 60.06,71.601 h -8.31 z"
     fill="#000000"
     id="path88" />
  <path
     d="m 1413.78,29.433 h 8.32 l 60.06,71.601 h -8.31 z"
     fill="#000000"
     id="path90" />
  <path
     d="m 1426.68,29.094 h 8.31 l 60.06,71.6 h -8.31 z"
     fill="#000000"
     id="path92" />
  <path
     d="m 1439.57,29.094 h 8.32 l 60.06,71.6 h -8.31 z"
     fill="#000000"
     id="path94" />
  <path
     d="m 1452.47,29.433 h 8.31 l 60.06,71.601 h -8.31 z"
     fill="#000000"
     id="path96" />
  <path
     d="m 1452.01,29.433 h 8.31 l 60.07,71.601 h -8.32 z"
     fill="#000000"
     id="path98" />
  <path
     d="m 1463.89,29.433 h 8.31 l 60.06,71.601 h -8.31 z"
     fill="#000000"
     id="path100" />
  <path
     d="m 1476.78,29.433 h 8.32 l 60.06,71.601 h -8.31 z"
     fill="#000000"
     id="path102" />
  <path
     d="m 1489.68,29.094 h 8.31 l 60.06,71.6 h -8.31 z"
     fill="#000000"
     id="path104" />
  <path
     d="m 1502.57,29.094 h 8.32 l 60.06,71.6 h -8.31 z"
     fill="#000000"
     id="path106" />
  <path
     d="m 1515.43,517.072 v -8.314 l 71.6,-60.063 v 8.313 z"
     fill="#000000"
     id="path108" />
  <path
     d="m 1515.09,504.177 v -8.314 l 71.6,-60.063 v 8.314 z"
     fill="#000000"
     id="path110" />
  <path
     d="m 1515.09,491.282 v -8.314 l 71.6,-60.063 v 8.314 z"
     fill="#000000"
     id="path112" />
  <path
     d="m 1515.43,478.387 v -8.314 l 71.6,-60.063 v 8.314 z"
     fill="#000000"
     id="path114" />
  <path
     d="m 1515.43,478.843 v -8.313 l 71.6,-60.063 v 8.313 z"
     fill="#000000"
     id="path116" />
  <path
     d="m 1515.43,466.966 v -8.313 l 71.6,-60.063 v 8.313 z"
     fill="#000000"
     id="path118" />
  <path
     d="m 1515.43,454.072 v -8.314 l 71.6,-60.063 v 8.314 z"
     fill="#000000"
     id="path120" />
  <path
     d="m 1515.09,441.177 v -8.314 l 71.6,-60.063 v 8.314 z"
     fill="#000000"
     id="path122" />
  <path
     d="m 1515.09,428.282 v -8.314 l 71.6,-60.063 v 8.314 z"
     fill="#000000"
     id="path124" />
  <path
     d="m 1515.43,415.387 v -8.314 l 71.6,-60.063 v 8.314 z"
     fill="#000000"
     id="path126" />
  <path
     d="m 1515.43,415.843 v -8.313 l 71.6,-60.063 v 8.313 z"
     fill="#000000"
     id="path128" />
  <path
     d="m 1515.43,403.966 v -8.313 l 71.6,-60.063 v 8.313 z"
     fill="#000000"
     id="path130" />
  <path
     d="m 1515.43,391.072 v -8.314 l 71.6,-60.063 v 8.314 z"
     fill="#000000"
     id="path132" />
  <path
     d="m 1515.09,378.177 v -8.314 l 71.6,-60.063 v 8.314 z"
     fill="#000000"
     id="path134" />
  <path
     d="m 1515.09,365.282 v -8.314 l 71.6,-60.063 v 8.314 z"
     fill="#000000"
     id="path136" />
  <path
     d="m 1515.43,352.387 v -8.314 l 71.6,-60.063 v 8.314 z"
     fill="#000000"
     id="path138" />
  <path
     d="m 1515.43,351.844 v -8.314 l 71.6,-60.063 v 8.314 z"
     fill="#000000"
     id="path140" />
  <path
     d="m 1515.43,339.966 v -8.314 l 71.6,-60.063 v 8.314 z"
     fill="#000000"
     id="path142" />
  <path
     d="m 1515.43,327.071 v -8.313 l 71.6,-60.063 v 8.313 z"
     fill="#000000"
     id="path144" />
  <path
     d="m 1515.09,314.176 v -8.313 l 71.6,-60.063 v 8.313 z"
     fill="#000000"
     id="path146" />
  <path
     d="m 1515.09,301.282 v -8.314 l 71.6,-60.063 v 8.314 z"
     fill="#000000"
     id="path148" />
  <path
     d="m 1515.43,288.387 v -8.314 l 71.6,-60.063 v 8.314 z"
     fill="#000000"
     id="path150" />
  <path
     d="m 1515.43,288.843 v -8.314 l 71.6,-60.063 v 8.314 z"
     fill="#000000"
     id="path152" />
  <path
     d="m 1515.43,276.966 v -8.314 l 71.6,-60.063 v 8.314 z"
     fill="#000000"
     id="path154" />
  <path
     d="m 1515.43,264.071 v -8.313 l 71.6,-60.063 v 8.313 z"
     fill="#000000"
     id="path156" />
  <path
     d="m 1515.09,251.176 v -8.313 l 71.6,-60.063 v 8.313 z"
     fill="#000000"
     id="path158" />
  <path
     d="m 1515.09,238.282 v -8.314 l 71.6,-60.063 v 8.314 z"
     fill="#000000"
     id="path160" />
  <path
     d="m 1515.43,225.387 v -8.314 l 71.6,-60.063 v 8.314 z"
     fill="#000000"
     id="path162" />
  <path
     d="m 1515.43,225.843 v -8.314 l 71.6,-60.063 v 8.314 z"
     fill="#000000"
     id="path164" />
  <path
     d="m 1515.43,213.966 v -8.314 l 71.6,-60.063 v 8.314 z"
     fill="#000000"
     id="path166" />
  <path
     d="m 1515.43,201.071 v -8.313 l 71.6,-60.063 v 8.313 z"
     fill="#000000"
     id="path168" />
  <path
     d="m 1515.09,188.176 v -8.313 l 71.6,-60.063 v 8.313 z"
     fill="#000000"
     id="path170" />
  <path
     d="m 1515.09,175.282 v -8.314 l 71.6,-60.063 v 8.314 z"
     fill="#000000"
     id="path172" />
  <path
     d="m 1515.43,162.387 v -8.314 l 71.6,-60.063 v 8.314 z"
     fill="#000000"
     id="path174" />
  <path
     d="m 1515.43,162.843 v -8.314 l 71.6,-60.063 v 8.314 z"
     fill="#000000"
     id="path176" />
  <path
     d="m 1515.43,150.966 v -8.314 l 71.6,-60.063 v 8.314 z"
     fill="#000000"
     id="path178" />
  <path
     d="m 1515.43,138.071 v -8.313 l 71.6,-60.063 v 8.313 z"
     fill="#000000"
     id="path180" />
  <path
     d="m 1515.09,125.176 v -8.313 l 71.6,-60.063 v 8.313 z"
     fill="#000000"
     id="path182" />
  <path
     d="m 1515.09,112.282 v -8.314 l 71.6,-60.063 v 8.314 z"
     fill="#000000"
     id="path184" />
  <rect
     x="785"
     y="6"
     width="8"
     height="95"
     rx="4"
     fill="#000000"
     id="rect186"
     ry="4" />
  <rect
     x="747"
     y="6"
     width="8"
     height="95"
     rx="4"
     fill="#000000"
     id="rect188"
     ry="4" />
  <rect
     x="709"
     y="6"
     width="8"
     height="95"
     rx="4"
     fill="#000000"
     id="rect190"
     ry="4" />
  <rect
     x="671"
     y="6"
     width="8"
     height="95"
     rx="4"
     fill="#000000"
     id="rect192"
     ry="4" />
  <rect
     x="633"
     y="6"
     width="8"
     height="95"
     rx="4"
     fill="#000000"
     id="rect194"
     ry="4" />
  <rect
     x="595"
     y="6"
     width="8"
     height="95"
     rx="4"
     fill="#000000"
     id="rect196"
     ry="4" />
  <rect
     x="557"
     y="6"
     width="8"
     height="95"
     rx="4"
     fill="#000000"
     id="rect198"
     ry="4" />
  <rect
     x="519"
     y="6"
     width="8"
     height="95"
     rx="4"
     fill="#000000"
     id="rect200"
     ry="4" />
  <rect
     x="481"
     y="6"
     width="8"
     height="95"
     rx="4"
     fill="#000000"
     id="rect202"
     ry="4" />
  <rect
     x="443"
     y="6"
     width="8"
     height="95"
     rx="4"
     fill="#000000"
     id="rect204"
     ry="4" />
  <rect
     x="405"
     y="6"
     width="8"
     height="95"
     rx="4"
     fill="#000000"
     id="rect206"
     ry="4" />
  <rect
     x="367"
     y="6"
     width="8"
     height="95"
     rx="4"
     fill="#000000"
     id="rect208"
     ry="4" />
  <rect
     x="329"
     y="6"
     width="8"
     height="95"
     rx="4"
     fill="#000000"
     id="rect210"
     ry="4" />
  <rect
     x="291"
     y="6"
     width="8"
     height="95"
     rx="4"
     fill="#000000"
     id="rect212"
     ry="4" />
  <rect
     x="253"
     y="6"
     width="8"
     height="95"
     rx="4"
     fill="#000000"
     id="rect214"
     ry="4" />
  <rect
     x="215"
     y="6"
     width="8"
     height="95"
     rx="4"
     fill="#000000"
     id="rect216"
     ry="4" />
  <rect
     x="177"
     y="6"
     width="8"
     height="95"
     rx="4"
     fill="#000000"
     id="rect218"
     ry="4" />
  <rect
     x="139"
     y="6"
     width="8"
     height="95"
     rx="4"
     fill="#000000"
     id="rect220"
     ry="4" />
  <rect
     x="1167"
     y="6"
     width="8"
     height="95"
     rx="4"
     fill="#000000"
     id="rect222"
     ry="4" />
  <rect
     x="1205"
     y="6"
     width="8"
     height="95"
     rx="4"
     fill="#000000"
     id="rect224"
     ry="4" />
  <rect
     x="1243"
     y="6"
     width="8"
     height="95"
     rx="4"
     fill="#000000"
     id="rect226"
     ry="4" />
  <rect
     x="1281"
     y="6"
     width="8"
     height="95"
     rx="4"
     fill="#000000"
     id="rect228"
     ry="4" />
  <rect
     x="1319"
     y="6"
     width="8"
     height="95"
     rx="4"
     fill="#000000"
     id="rect230"
     ry="4" />
  <rect
     x="1357"
     y="6"
     width="8"
     height="95"
     rx="4"
     fill="#000000"
     id="rect232"
     ry="4" />
  <rect
     x="1395"
     y="6"
     width="8"
     height="95"
     rx="4"
     fill="#000000"
     id="rect234"
     ry="4" />
  <rect
     x="1433"
     y="6"
     width="8"
     height="95"
     rx="4"
     fill="#000000"
     id="rect236"
     ry="4" />
  <rect
     x="1471"
     y="6"
     width="8"
     height="95"
     rx="4"
     fill="#000000"
     id="rect238"
     ry="4" />
  <rect
     x="1129"
     y="6"
     width="8"
     height="95"
     rx="4"
     fill="#000000"
     id="rect240"
     ry="4" />
  <rect
     x="1091"
     y="6"
     width="8"
     height="95"
     rx="4"
     fill="#000000"
     id="rect242"
     ry="4" />
  <rect
     x="1053"
     y="6"
     width="8"
     height="95"
     rx="4"
     fill="#000000"
     id="rect244"
     ry="4" />
  <rect
     x="1015"
     y="6"
     width="8"
     height="95"
     rx="4"
     fill="#000000"
     id="rect246"
     ry="4" />
  <rect
     x="977"
     y="6"
     width="8"
     height="95"
     rx="4"
     fill="#000000"
     id="rect248"
     ry="4" />
  <rect
     x="939"
     y="6"
     width="8"
     height="95"
     rx="4"
     fill="#000000"
     id="rect250"
     ry="4" />
  <rect
     x="826"
     y="2"
     width="79"
     height="99"
     rx="20"
     fill="#3e3e3e"
     id="rect252"
     ry="20" />
  <rect
     x="1246"
     y="465"
     width="64"
     height="78"
     fill="#c7e7f5"
     id="rect254" />
  <rect
     x="1308"
     y="465"
     width="210"
     height="78"
     fill="#c7e7f5"
     id="rect256" />
  <rect
     x="1368"
     y="469"
     width="20"
     height="18"
     fill="#c7e7f5"
     id="rect258" />
  <rect
     x="1422"
     y="469"
     width="20"
     height="18"
     fill="#c7e7f5"
     id="rect260" />
  <rect
     x="1477"
     y="469"
     width="20"
     height="18"
     fill="#c7e7f5"
     id="rect262" />
  <path
     d="m 1281.08,508.667 2.37,3.153 c -1.79,3.44 -5.39,5.805 -9.53,5.805 -5.93,0 -10.75,-4.82 -10.75,-10.75 0,-4.354 2.61,-8.063 6.36,-9.765 l 0.37,3.888 c -1.88,1.29 -3.15,3.422 -3.15,5.877 0,3.96 3.21,7.167 7.17,7.167 3.33,0 6.11,-2.294 6.91,-5.375 z m 9.95,0.197 -2.24,1.111 -5.02,-6.683 h -8.22 l -0.36,-3.584 h 5.89 v -3.583 h -6.27 l -0.54,-5.375 c 1.81,-0.215 3.23,-1.72 3.23,-3.583 0,-0.951 -0.38,-1.862 -1.05,-2.534 -0.67,-0.672 -1.58,-1.05 -2.53,-1.05 -0.95,0 -1.87,0.378 -2.54,1.05 -0.67,0.672 -1.05,1.583 -1.05,2.534 v 0.179 l 1.97,19.529 h 9.68 l 5.73,7.65 4.93,-2.454 z"
     fill="#000000"
     id="path264" />
  <path
     d="m 1332.92,509.083 2.36,3.154 c -1.79,3.44 -5.39,5.805 -9.53,5.805 -5.93,0 -10.75,-4.82 -10.75,-10.75 0,-4.354 2.62,-8.063 6.36,-9.765 l 0.38,3.888 c -1.88,1.29 -3.16,3.422 -3.16,5.877 0,3.959 3.21,7.166 7.17,7.166 3.33,0 6.11,-2.293 6.92,-5.375 z m 9.94,0.197 -2.24,1.111 -5.02,-6.683 h -8.22 l -0.36,-3.583 h 5.9 v -3.583 h -6.27 l -0.54,-5.375 c 1.81,-0.215 3.22,-1.72 3.22,-3.584 0,-0.95 -0.37,-1.861 -1.05,-2.533 -0.67,-0.672 -1.58,-1.05 -2.53,-1.05 -0.95,0 -1.86,0.378 -2.53,1.05 -0.68,0.672 -1.05,1.583 -1.05,2.533 v 0.179 l 1.97,19.53 h 9.67 l 5.74,7.65 4.92,-2.454 z"
     fill="#000000"
     id="path266" />
  <path
     d="m 1382.92,509.083 2.36,3.154 c -1.79,3.44 -5.39,5.805 -9.53,5.805 -5.93,0 -10.75,-4.82 -10.75,-10.75 0,-4.354 2.62,-8.063 6.36,-9.765 l 0.38,3.888 c -1.88,1.29 -3.16,3.422 -3.16,5.877 0,3.959 3.21,7.166 7.17,7.166 3.33,0 6.11,-2.293 6.92,-5.375 z m 9.94,0.197 -2.24,1.111 -5.02,-6.683 h -8.22 l -0.36,-3.583 h 5.9 v -3.583 h -6.27 l -0.54,-5.375 c 1.81,-0.215 3.22,-1.72 3.22,-3.584 0,-0.95 -0.37,-1.861 -1.05,-2.533 -0.67,-0.672 -1.58,-1.05 -2.53,-1.05 -0.95,0 -1.86,0.378 -2.53,1.05 -0.68,0.672 -1.05,1.583 -1.05,2.533 v 0.179 l 1.97,19.53 h 9.67 l 5.74,7.65 4.92,-2.454 z"
     fill="#000000"
     id="path268" />
  <path
     d="m 1434.92,509.083 2.36,3.154 c -1.79,3.44 -5.39,5.805 -9.53,5.805 -5.93,0 -10.75,-4.82 -10.75,-10.75 0,-4.354 2.62,-8.063 6.36,-9.765 l 0.38,3.888 c -1.88,1.29 -3.16,3.422 -3.16,5.877 0,3.959 3.21,7.166 7.17,7.166 3.33,0 6.11,-2.293 6.92,-5.375 z m 9.94,0.197 -2.24,1.111 -5.02,-6.683 h -8.22 l -0.36,-3.583 h 5.9 v -3.583 h -6.27 l -0.54,-5.375 c 1.81,-0.215 3.22,-1.72 3.22,-3.584 0,-0.95 -0.37,-1.861 -1.05,-2.533 -0.67,-0.672 -1.58,-1.05 -2.53,-1.05 -0.95,0 -1.86,0.378 -2.53,1.05 -0.68,0.672 -1.05,1.583 -1.05,2.533 v 0.179 l 1.97,19.53 h 9.67 l 5.74,7.65 4.92,-2.454 z"
     fill="#000000"
     id="path270" />
  <path
     d="m 1489.92,509.083 2.36,3.154 c -1.79,3.44 -5.39,5.805 -9.53,5.805 -5.93,0 -10.75,-4.82 -10.75,-10.75 0,-4.354 2.62,-8.063 6.36,-9.765 l 0.38,3.888 c -1.88,1.29 -3.16,3.422 -3.16,5.877 0,3.959 3.21,7.166 7.17,7.166 3.33,0 6.11,-2.293 6.92,-5.375 z m 9.94,0.197 -2.24,1.111 -5.02,-6.683 h -8.22 l -0.36,-3.583 h 5.9 v -3.583 h -6.27 l -0.54,-5.375 c 1.81,-0.215 3.22,-1.72 3.22,-3.584 0,-0.95 -0.37,-1.861 -1.05,-2.533 -0.67,-0.672 -1.58,-1.05 -2.53,-1.05 -0.95,0 -1.86,0.378 -2.53,1.05 -0.68,0.672 -1.05,1.583 -1.05,2.533 v 0.179 l 1.97,19.53 h 9.67 l 5.74,7.65 4.92,-2.454 z"
     fill="#000000"
     id="path272" />
  <rect
     x="135"
     y="462"
     width="8"
     height="95"
     rx="4"
     fill="#000000"
     id="rect274"
     ry="4" />
  <rect
     x="173"
     y="462"
     width="8"
     height="95"
     rx="4"
     fill="#000000"
     id="rect276"
     ry="4" />
  <rect
     x="211"
     y="462"
     width="8"
     height="95"
     rx="4"
     fill="#000000"
     id="rect278"
     ry="4" />
  <rect
     x="249"
     y="462"
     width="8"
     height="95"
     rx="4"
     fill="#000000"
     id="rect280"
     ry="4" />
  <rect
     x="287"
     y="462"
     width="8"
     height="95"
     rx="4"
     fill="#000000"
     id="rect282"
     ry="4" />
  <rect
     x="325"
     y="462"
     width="8"
     height="95"
     rx="4"
     fill="#000000"
     id="rect284"
     ry="4" />
  <rect
     x="363"
     y="462"
     width="8"
     height="95"
     rx="4"
     fill="#000000"
     id="rect286"
     ry="4" />
  <rect
     x="401"
     y="462"
     width="8"
     height="95"
     rx="4"
     fill="#000000"
     id="rect288"
     ry="4" />
  <rect
     x="439"
     y="462"
     width="8"
     height="95"
     rx="4"
     fill="#000000"
     id="rect290"
     ry="4" />
  <rect
     x="477"
     y="462"
     width="8"
     height="95"
     rx="4"
     fill="#000000"
     id="rect292"
     ry="4" />
  <rect
     x="515"
     y="462"
     width="8"
     height="95"
     rx="4"
     fill="#000000"
     id="rect294"
     ry="4" />
  <rect
     x="553"
     y="462"
     width="8"
     height="95"
     rx="4"
     fill="#000000"
     id="rect296"
     ry="4" />
  <rect
     x="591"
     y="462"
     width="8"
     height="95"
     rx="4"
     fill="#000000"
     id="rect298"
     ry="4" />
  <rect
     x="629"
     y="462"
     width="8"
     height="95"
     rx="4"
     fill="#000000"
     id="rect300"
     ry="4" />
  <rect
     x="667"
     y="462"
     width="8"
     height="95"
     rx="4"
     fill="#000000"
     id="rect302"
     ry="4" />
  <rect
     x="705"
     y="462"
     width="8"
     height="95"
     rx="4"
     fill="#000000"
     id="rect304"
     ry="4" />
  <rect
     x="1015"
     y="465"
     width="8"
     height="95"
     rx="4"
     fill="#000000"
     id="rect306"
     ry="4" />
  <rect
     x="1053"
     y="465"
     width="8"
     height="95"
     rx="4"
     fill="#000000"
     id="rect308"
     ry="4" />
  <rect
     x="1091"
     y="465"
     width="8"
     height="95"
     rx="4"
     fill="#000000"
     id="rect310"
     ry="4" />
  <rect
     x="1129"
     y="465"
     width="8"
     height="95"
     rx="4"
     fill="#000000"
     id="rect312"
     ry="4" />
  <rect
     x="1167"
     y="465"
     width="8"
     height="95"
     rx="4"
     fill="#000000"
     id="rect314"
     ry="4" />
  <rect
     x="1205"
     y="465"
     width="8"
     height="95"
     rx="4"
     fill="#000000"
     id="rect316"
     ry="4" />
  <rect
     x="1243"
     y="465"
     width="8"
     height="95"
     rx="4"
     fill="#d6d6d6"
     id="rect318"
     ry="4" />
  <rect
     x="1302"
     y="465"
     width="8"
     height="95"
     rx="4"
     fill="#d6d6d6"
     id="rect320"
     ry="4" />
  <rect
     x="1350"
     y="465"
     width="8"
     height="95"
     rx="4"
     fill="#d6d6d6"
     id="rect322"
     ry="4" />
  <rect
     x="1400"
     y="465"
     width="8"
     height="95"
     rx="4"
     fill="#d6d6d6"
     id="rect324"
     ry="4" />
  <rect
     x="1454"
     y="465"
     width="8"
     height="95"
     rx="4"
     fill="#d6d6d6"
     id="rect326"
     ry="4" />
  <rect
     x="648"
     y="204"
     width="8"
     height="160"
     rx="4"
     fill="#000000"
     id="rect328"
     ry="4" />
  <rect
     x="610"
     y="204"
     width="8"
     height="160"
     rx="4"
     fill="#000000"
     id="rect330"
     ry="4" />
  <rect
     x="572"
     y="204"
     width="8"
     height="160"
     rx="4"
     fill="#000000"
     id="rect332"
     ry="4" />
  <rect
     x="534"
     y="204"
     width="8"
     height="160"
     rx="4"
     fill="#000000"
     id="rect334"
     ry="4" />
  <rect
     x="496"
     y="204"
     width="8"
     height="160"
     rx="4"
     fill="#000000"
     id="rect336"
     ry="4" />
  <rect
     x="458"
     y="204"
     width="8"
     height="160"
     rx="4"
     fill="#000000"
     id="rect338"
     ry="4" />
  <rect
     x="420"
     y="204"
     width="8"
     height="160"
     rx="4"
     fill="#000000"
     id="rect340"
     ry="4" />
  <rect
     x="382"
     y="204"
     width="8"
     height="160"
     rx="4"
     fill="#000000"
     id="rect342"
     ry="4" />
  <rect
     x="344"
     y="204"
     width="8"
     height="160"
     rx="4"
     fill="#000000"
     id="rect344"
     ry="4" />
  <rect
     x="306"
     y="204"
     width="8"
     height="160"
     rx="4"
     fill="#000000"
     id="rect346"
     ry="4" />
  <rect
     x="686"
     y="204"
     width="8"
     height="160"
     rx="4"
     fill="#000000"
     id="rect348"
     ry="4" />
  <rect
     x="724"
     y="204"
     width="8"
     height="160"
     rx="4"
     fill="#000000"
     id="rect350"
     ry="4" />
  <rect
     x="762"
     y="204"
     width="8"
     height="160"
     rx="4"
     fill="#000000"
     id="rect352"
     ry="4" />
  <rect
     x="800"
     y="204"
     width="8"
     height="160"
     rx="4"
     fill="#000000"
     id="rect354"
     ry="4" />
  <rect
     x="838"
     y="204"
     width="8"
     height="160"
     rx="4"
     fill="#000000"
     id="rect356"
     ry="4" />
  <rect
     x="876"
     y="204"
     width="8"
     height="160"
     rx="4"
     fill="#000000"
     id="rect358"
     ry="4" />
  <rect
     x="914"
     y="204"
     width="8"
     height="160"
     rx="4"
     fill="#000000"
     id="rect360"
     ry="4" />
  <rect
     x="952"
     y="204"
     width="8"
     height="160"
     rx="4"
     fill="#000000"
     id="rect362"
     ry="4" />
  <rect
     x="990"
     y="204"
     width="8"
     height="160"
     rx="4"
     fill="#000000"
     id="rect364"
     ry="4" />
  <rect
     x="1028"
     y="204"
     width="8"
     height="160"
     rx="4"
     fill="#000000"
     id="rect366"
     ry="4" />
  <rect
     x="1066"
     y="204"
     width="8"
     height="160"
     rx="4"
     fill="#000000"
     id="rect368"
     ry="4" />
  <rect
     x="1104"
     y="204"
     width="8"
     height="160"
     rx="4"
     fill="#000000"
     id="rect370"
     ry="4" />
  <rect
     x="1142"
     y="204"
     width="8"
     height="160"
     rx="4"
     fill="#000000"
     id="rect372"
     ry="4" />
  <rect
     x="1180"
     y="204"
     width="8"
     height="160"
     rx="4"
     fill="#000000"
     id="rect374"
     ry="4" />
  <rect
     x="1218"
     y="204"
     width="8"
     height="160"
     rx="4"
     fill="#000000"
     id="rect376"
     ry="4" />
  <rect
     x="1256"
     y="204"
     width="8"
     height="160"
     rx="4"
     fill="#000000"
     id="rect378"
     ry="4" />
  <rect
     x="1294"
     y="204"
     width="8"
     height="160"
     rx="4"
     fill="#000000"
     id="rect380"
     ry="4" />
  <rect
     x="-287"
     y="266"
     width="8"
     height="1100"
     rx="4"
     transform="rotate(-90)"
     fill="#000000"
     id="rect382"
     ry="4" />
  <path
     d="M 1342,350.5 V 223 c 8.5,-36.5 64,-4 67.5,22 v 76.5 c -10.5,57 -67.5,46 -67.5,29 z"
     fill="#3e3e3e"
     stroke="#3e3e3e"
     id="path384" />
  <path
     d="M 1342,350.5 V 223 c 8.5,-36.5 64,-4 67.5,22 v 76.5 c -10.5,57 -67.5,46 -67.5,29 z"
     fill="#3e3e3e"
     stroke="#3e3e3e"
     id="path386" />
  <path
     d="m 275.5,347.817 v -127.5 c -8.5,-36.5 -64,-4 -67.5,22 v 76.5 c 10.5,57 67.5,46 67.5,29 z"
     fill="#3e3e3e"
     stroke="#3e3e3e"
     id="path388" />
  <rect
     x="-417.26898"
     y="8.9999847"
     width="7.9861102"
     height="95"
     rx="3.9930601"
     transform="rotate(-90)"
     fill="#000000"
     id="rect390"
     ry="3.9930601" />
  <rect
     x="-151.73099"
     y="8.9999847"
     width="7.9861102"
     height="95"
     rx="3.9930601"
     transform="rotate(-90)"
     fill="#000000"
     id="rect392"
     ry="3.9930601" />
  <rect
     x="-189.66501"
     y="9.0000076"
     width="7.9861102"
     height="95"
     rx="3.9930601"
     transform="rotate(-90)"
     fill="#000000"
     id="rect394"
     ry="3.9930601" />
  <rect
     x="-227.599"
     y="9"
     width="7.9861102"
     height="95"
     rx="3.9930601"
     transform="rotate(-90)"
     fill="#000000"
     id="rect396"
     ry="3.9930601" />
  <rect
     x="-265.53302"
     y="9.0000229"
     width="7.9861102"
     height="95"
     rx="3.9930601"
     transform="rotate(-90)"
     fill="#000000"
     id="rect398"
     ry="3.9930601" />
  <rect
     x="-303.46698"
     y="8.9999771"
     width="7.9861102"
     height="95"
     rx="3.9930601"
     transform="rotate(-90)"
     fill="#000000"
     id="rect400"
     ry="3.9930601" />
  <rect
     x="-341.401"
     y="9"
     width="7.9861102"
     height="95"
     rx="3.9930601"
     transform="rotate(-90)"
     fill="#000000"
     id="rect402"
     ry="3.9930601" />
  <rect
     x="-379.33502"
     y="9.0000229"
     width="7.9861102"
     height="95"
     rx="3.9930601"
     transform="rotate(-90)"
     fill="#000000"
     id="rect404"
     ry="3.9930601" />
  <rect
     x="0"
     y="0"
     width="104"
     height="111"
     rx="24"
     fill="#3e3e3e"
     id="rect406"
     ry="24" />
  <rect
     x="0"
     y="449.21399"
     width="103"
     height="122.786"
     rx="24"
     fill="#3e3e3e"
     id="rect408"
     ry="24" />
  <rect
     x="1513"
     y="455.203"
     width="103"
     height="117.797"
     rx="24"
     fill="#3e3e3e"
     id="rect410"
     ry="24" />
  <rect
     x="1509"
     y="0"
     width="107"
     height="116"
     rx="24"
     fill="#3e3e3e"
     id="rect412"
     ry="24" />
  <rect
     x="-424.25702"
     y="1513"
     width="7.9862099"
     height="95"
     rx="3.9930999"
     transform="rotate(-90)"
     fill="#000000"
     id="rect414"
     ry="3.9930999" />
  <rect
     x="-386.32202"
     y="1513"
     width="7.9862099"
     height="95"
     rx="3.9930999"
     transform="rotate(-90)"
     fill="#000000"
     id="rect416"
     ry="3.9930999" />
  <rect
     x="-348.388"
     y="1513"
     width="7.9862099"
     height="95"
     rx="3.9930999"
     transform="rotate(-90)"
     fill="#000000"
     id="rect418"
     ry="3.9930999" />
  <rect
     x="-310.453"
     y="1513"
     width="7.9862099"
     height="95"
     rx="3.9930999"
     transform="rotate(-90)"
     fill="#000000"
     id="rect420"
     ry="3.9930999" />
  <rect
     x="-272.51898"
     y="1513"
     width="7.9862099"
     height="95"
     rx="3.9930999"
     transform="rotate(-90)"
     fill="#000000"
     id="rect422"
     ry="3.9930999" />
  <rect
     x="-234.58401"
     y="1513"
     width="7.9862099"
     height="95"
     rx="3.9930999"
     transform="rotate(-90)"
     fill="#000000"
     id="rect424"
     ry="3.9930999" />
  <rect
     x="-196.64999"
     y="1513"
     width="7.9862099"
     height="95"
     rx="3.9930999"
     transform="rotate(-90)"
     fill="#000000"
     id="rect426"
     ry="3.9930999" />
  <rect
     x="-158.716"
     y="1513"
     width="7.9862099"
     height="95"
     rx="3.9930999"
     transform="rotate(-90)"
     fill="#000000"
     id="rect428"
     ry="3.9930999" />
  <rect
     x="-519"
     y="0"
     width="480"
     height="30"
     transform="rotate(-90)"
     fill="#3e3e3e"
     id="rect430" />
  <path
     d="M 812,543.5 H 748.5 V 478 c 18,-34.4 63.5,5.5 63.5,28 z"
     fill="#3e3e3e"
     id="path432" />
  <path
     d="m 918,543.934 h 63.5 v -65.5 c -18,-34.4 -63.5,5.5 -63.5,28 z"
     fill="#3e3e3e"
     id="path434" />
  <rect
     x="32"
     y="542"
     width="780"
     height="30"
     fill="#3e3e3e"
     id="rect436" />
  <rect
     x="72"
     y="0"
     width="1500"
     height="30"
     fill="#3e3e3e"
     id="rect438" />
  <rect
     x="918"
     y="543"
     width="670"
     height="30"
     fill="#3e3e3e"
     id="rect440" />
  <rect
     x="-533"
     y="1586"
     width="480"
     height="30"
     transform="rotate(-90)"
     fill="#3e3e3e"
     id="rect442" />
  <path
     d="M 915,505.333 907.75,512.8 890,493.867 v 64.8 h -10 v -64.8 l -17.75,18.933 -7.25,-7.467 30,-32 z"
     fill="#000000"
     id="path444" />
  <path
     d="m 814.25,541.833 7.31,-7.583 17.898,19.229 v -65.812 h 10.084 v 65.812 l 17.898,-19.229 7.31,7.583 -30.25,32.5 z"
     fill="#000000"
     id="path446" />
</svg>
